ffmpeg started on 2025-05-12 at 18:33:53
Report written to "D:\Convert\FFMetrics\reports\ssim_report-6.txt"
Log level: 32
Command line:
ffmpeg -hide_banner -nostdin -i "G:\\\xc0\xed\xe8\xec\xe5\\\xce\xed\xe3\xee\xe8\xed\xe3\xe8\\!_35_\xcb\xe5\xf2\xee_2024\\DreamCast\\\xcf\xee\xea\xe0-\xef\xee\xea\xe0, \xc7\xe5\xec\xeb\xff\\[DC] Bye Bye Earth - 01_Telegram_HEVC.mkv" -i "G:\\\xc0\xed\xe8\xec\xe5\\\xce\xed\xe3\xee\xe8\xed\xe3\xe8\\!_35_\xcb\xe5\xf2\xee_2024\\DreamCast\\\xcf\xee\xea\xe0-\xef\xee\xea\xe0, \xc7\xe5\xec\xeb\xff\\[DC] Bye Bye Earth - 01_Telegram.mp4" -lavfi "[0:v]settb=AVTB,setpts=PTS-STARTPTS,format=pix_fmts=yuv420p10,fps=24000/1001,scale=1920:1080:flags=bicubic[main];[1:v]settb=AVTB,setpts=PTS-STARTPTS,format=pix_fmts=yuv420p,fps=24000/1001,scale=1920:1080:flags=bicubic[ref];[main][ref]ssim=eof_action=endall:stats_file='D\\:/Convert/FFMetrics/logs/ssim_logfile-6.txt'" -f null -
Input #0, matroska,webm, from 'G:\Аниме\Онгоинги\!_35_Лето_2024\DreamCast\Пока-пока, Земля\[DC] Bye Bye Earth - 01_Telegram_HEVC.mkv':
  Metadata:
    COMPATIBLE_BRANDS: isomiso2avc1mp41
    MAJOR_BRAND     : isom
    MINOR_VERSION   : 512
    ENCODER         : Lavf61.7.100
  Duration: 00:23:46.65, start: -0.021000, bitrate: 1544 kb/s
  Stream #0:0: Video: hevc (Main 10), yuv420p10le(tv, bt709, progressive), 1920x1080 [SAR 1:1 DAR 16:9], 23.98 fps, 23.98 tbr, 1k tbn (default)
      Metadata:
        HANDLER_NAME    : VideoHandler
        VENDOR_ID       : [0][0][0][0]
        ENCODER         : Lavc61.19.100 libx265
        BPS             : 1347399
        DURATION        : 00:23:46.549708333
        NUMBER_OF_FRAMES: 34203
        NUMBER_OF_BYTES : 240266394
        _STATISTICS_WRITING_APP: mkvpropedit v66.0.0 ('Josie') 64-bit
        _STATISTICS_WRITING_DATE_UTC: 2025-05-09 15:07:04
        _STATISTICS_TAGS: BPS DURATION NUMBER_OF_FRAMES NUMBER_OF_BYTES
  Stream #0:1: Audio: aac (LC), 48000 Hz, stereo, fltp (default)
      Metadata:
        HANDLER_NAME    : SoundHandler
        VENDOR_ID       : [0][0][0][0]
        ENCODER         : Lavc61.19.100 aac
        BPS             : 193528
        DURATION        : 00:23:46.645000000
        NUMBER_OF_FRAMES: 66875
        NUMBER_OF_BYTES : 34512132
        _STATISTICS_WRITING_APP: mkvpropedit v66.0.0 ('Josie') 64-bit
        _STATISTICS_WRITING_DATE_UTC: 2025-05-09 15:07:04
        _STATISTICS_TAGS: BPS DURATION NUMBER_OF_FRAMES NUMBER_OF_BYTES
Input #1, mov,mp4,m4a,3gp,3g2,mj2, from 'G:\Аниме\Онгоинги\!_35_Лето_2024\DreamCast\Пока-пока, Земля\[DC] Bye Bye Earth - 01_Telegram.mp4':
  Metadata:
    major_brand     : isom
    minor_version   : 512
    compatible_brands: isomiso2avc1mp41
    encoder         : Lavf61.1.100
  Duration: 00:23:46.61, start: 0.000000, bitrate: 3600 kb/s
  Stream #1:0[0x1](und): Video: h264 (High) (avc1 / 0x31637661), yuv420p(tv, bt709, progressive), 1920x1080 [SAR 1:1 DAR 16:9], 3452 kb/s, 23.98 fps, 23.98 tbr, 24k tbn (default)
      Metadata:
        handler_name    : VideoHandler
        vendor_id       : [0][0][0][0]
        encoder         : Lavc61.3.100 h264_qsv
  Stream #1:1[0x2](und): Audio: aac (HE-AACv2) (mp4a / 0x6134706D), 48000 Hz, stereo, fltp, 144 kb/s (default)
      Metadata:
        handler_name    : SoundHandler
        vendor_id       : [0][0][0][0]
Stream mapping:
  Stream #0:0 (hevc) -> settb:default
  Stream #1:0 (h264) -> settb:default
  ssim:default -> Stream #0:0 (wrapped_avframe)
  Stream #0:1 -> #0:1 (aac (native) -> pcm_s16le (native))
Output #0, null, to 'pipe:':
  Metadata:
    COMPATIBLE_BRANDS: isomiso2avc1mp41
    MAJOR_BRAND     : isom
    MINOR_VERSION   : 512
    encoder         : Lavf61.7.100
  Stream #0:0: Video: wrapped_avframe, yuv420p10le(tv, bt709, progressive), 1920x1080 [SAR 1:1 DAR 16:9], q=2-31, 200 kb/s, 23.98 fps, 23.98 tbn
      Metadata:
        encoder         : Lavc61.19.100 wrapped_avframe
  Stream #0:1: Audio: pcm_s16le, 48000 Hz, stereo, s16, 1536 kb/s (default)
      Metadata:
        HANDLER_NAME    : SoundHandler
        VENDOR_ID       : [0][0][0][0]
        _STATISTICS_TAGS: BPS DURATION NUMBER_OF_FRAMES NUMBER_OF_BYTES
        BPS             : 193528
        DURATION        : 00:23:46.645000000
        NUMBER_OF_FRAMES: 66875
        NUMBER_OF_BYTES : 34512132
        _STATISTICS_WRITING_APP: mkvpropedit v66.0.0 ('Josie') 64-bit
        _STATISTICS_WRITING_DATE_UTC: 2025-05-09 15:07:04
        encoder         : Lavc61.19.100 pcm_s16le
frame=  165 fps=0.0 q=-0.0 size=N/A time=00:00:06.88 bitrate=N/A speed=13.3x    frame=  366 fps=352 q=-0.0 size=N/A time=00:00:15.26 bitrate=N/A speed=14.7x    frame=  588 fps=380 q=-0.0 size=N/A time=00:00:24.52 bitrate=N/A speed=15.9x    frame=  800 fps=387 q=-0.0 size=N/A time=00:00:33.36 bitrate=N/A speed=16.1x    frame= 1002 fps=387 q=-0.0 size=N/A time=00:00:41.79 bitrate=N/A speed=16.1x    frame= 1204 fps=386 q=-0.0 size=N/A time=00:00:50.21 bitrate=N/A speed=16.1x    frame= 1440 fps=397 q=-0.0 size=N/A time=00:01:00.06 bitrate=N/A speed=16.6x    frame= 1676 fps=404 q=-0.0 size=N/A time=00:01:09.90 bitrate=N/A speed=16.9x    frame= 1926 fps=413 q=-0.0 size=N/A time=00:01:20.33 bitrate=N/A speed=17.2x    frame= 2179 fps=421 q=-0.0 size=N/A time=00:01:30.88 bitrate=N/A speed=17.5x    frame= 2411 fps=424 q=-0.0 size=N/A time=00:01:40.55 bitrate=N/A speed=17.7x    frame= 2653 fps=427 q=-0.0 size=N/A time=00:01:50.65 bitrate=N/A speed=17.8x    frame= 2876 fps=428 q=-0.0 size=N/A time=00:01:59.95 bitrate=N/A speed=17.8x    frame= 3139 fps=433 q=-0.0 size=N/A time=00:02:10.92 bitrate=N/A speed=18.1x    frame= 3398 fps=438 q=-0.0 size=N/A time=00:02:21.72 bitrate=N/A speed=18.3x    frame= 3663 fps=443 q=-0.0 size=N/A time=00:02:32.77 bitrate=N/A speed=18.5x    frame= 3898 fps=444 q=-0.0 size=N/A time=00:02:42.57 bitrate=N/A speed=18.5x    frame= 4166 fps=448 q=-0.0 size=N/A time=00:02:53.75 bitrate=N/A speed=18.7x    frame= 4422 fps=451 q=-0.0 size=N/A time=00:03:04.43 bitrate=N/A speed=18.8x    frame= 4679 fps=453 q=-0.0 size=N/A time=00:03:15.15 bitrate=N/A speed=18.9x    frame= 4896 fps=451 q=-0.0 size=N/A time=00:03:24.20 bitrate=N/A speed=18.8x    frame= 5072 fps=446 q=-0.0 size=N/A time=00:03:31.54 bitrate=N/A speed=18.6x    frame= 5275 fps=444 q=-0.0 size=N/A time=00:03:40.01 bitrate=N/A speed=18.5x    frame= 5469 fps=441 q=-0.0 size=N/A time=00:03:48.10 bitrate=N/A speed=18.4x    frame= 5650 fps=437 q=-0.0 size=N/A time=00:03:55.65 bitrate=N/A speed=18.2x    frame= 5869 fps=437 q=-0.0 size=N/A time=00:04:04.78 bitrate=N/A speed=18.2x    frame= 6070 fps=436 q=-0.0 size=N/A time=00:04:13.16 bitrate=N/A speed=18.2x    frame= 6290 fps=435 q=-0.0 size=N/A time=00:04:22.34 bitrate=N/A speed=18.1x    frame= 6480 fps=433 q=-0.0 size=N/A time=00:04:30.27 bitrate=N/A speed=18.1x    frame= 6702 fps=433 q=-0.0 size=N/A time=00:04:39.52 bitrate=N/A speed=18.1x    frame= 6900 fps=431 q=-0.0 size=N/A time=00:04:47.78 bitrate=N/A speed=  18x    frame= 7084 fps=429 q=-0.0 size=N/A time=00:04:55.46 bitrate=N/A speed=17.9x    frame= 7294 fps=428 q=-0.0 size=N/A time=00:05:04.22 bitrate=N/A speed=17.9x    frame= 7495 fps=427 q=-0.0 size=N/A time=00:05:12.60 bitrate=N/A speed=17.8x    frame= 7700 fps=426 q=-0.0 size=N/A time=00:05:21.15 bitrate=N/A speed=17.8x    frame= 7905 fps=426 q=-0.0 size=N/A time=00:05:29.70 bitrate=N/A speed=17.7x    frame= 8104 fps=424 q=-0.0 size=N/A time=00:05:38.00 bitrate=N/A speed=17.7x    frame= 8300 fps=423 q=-0.0 size=N/A time=00:05:46.17 bitrate=N/A speed=17.6x    frame= 8458 fps=420 q=-0.0 size=N/A time=00:05:52.76 bitrate=N/A speed=17.5x    frame= 8667 fps=420 q=-0.0 size=N/A time=00:06:01.48 bitrate=N/A speed=17.5x    frame= 8860 fps=419 q=-0.0 size=N/A time=00:06:09.53 bitrate=N/A speed=17.5x    frame= 9115 fps=420 q=-0.0 size=N/A time=00:06:20.17 bitrate=N/A speed=17.5x    frame= 9349 fps=421 q=-0.0 size=N/A time=00:06:29.93 bitrate=N/A speed=17.6x    frame= 9549 fps=420 q=-0.0 size=N/A time=00:06:38.27 bitrate=N/A speed=17.5x    frame= 9722 fps=419 q=-0.0 size=N/A time=00:06:45.48 bitrate=N/A speed=17.5x    frame= 9921 fps=418 q=-0.0 size=N/A time=00:06:53.78 bitrate=N/A speed=17.4x    frame=10108 fps=417 q=-0.0 size=N/A time=00:07:01.58 bitrate=N/A speed=17.4x    frame=10333 fps=417 q=-0.0 size=N/A time=00:07:10.97 bitrate=N/A speed=17.4x    frame=10572 fps=418 q=-0.0 size=N/A time=00:07:20.94 bitrate=N/A speed=17.4x    frame=10812 fps=419 q=-0.0 size=N/A time=00:07:30.95 bitrate=N/A speed=17.5x    frame=10994 fps=418 q=-0.0 size=N/A time=00:07:38.54 bitrate=N/A speed=17.4x    frame=11267 fps=420 q=-0.0 size=N/A time=00:07:49.92 bitrate=N/A speed=17.5x    frame=11519 fps=421 q=-0.0 size=N/A time=00:08:00.43 bitrate=N/A speed=17.6x    frame=11757 fps=422 q=-0.0 size=N/A time=00:08:10.36 bitrate=N/A speed=17.6x    frame=12014 fps=423 q=-0.0 size=N/A time=00:08:21.08 bitrate=N/A speed=17.7x    frame=12279 fps=425 q=-0.0 size=N/A time=00:08:32.13 bitrate=N/A speed=17.7x    frame=12551 fps=427 q=-0.0 size=N/A time=00:08:43.48 bitrate=N/A speed=17.8x    frame=12792 fps=428 q=-0.0 size=N/A time=00:08:53.53 bitrate=N/A speed=17.8x    frame=13074 fps=429 q=-0.0 size=N/A time=00:09:05.29 bitrate=N/A speed=17.9x    frame=13317 fps=430 q=-0.0 size=N/A time=00:09:15.42 bitrate=N/A speed=17.9x    frame=13570 fps=431 q=-0.0 size=N/A time=00:09:25.98 bitrate=N/A speed=  18x    frame=13846 fps=433 q=-0.0 size=N/A time=00:09:37.49 bitrate=N/A speed=18.1x    frame=14117 fps=434 q=-0.0 size=N/A time=00:09:48.79 bitrate=N/A speed=18.1x    frame=14368 fps=435 q=-0.0 size=N/A time=00:09:59.26 bitrate=N/A speed=18.1x    frame=14634 fps=436 q=-0.0 size=N/A time=00:10:10.35 bitrate=N/A speed=18.2x    frame=14897 fps=438 q=-0.0 size=N/A time=00:10:21.32 bitrate=N/A speed=18.2x    frame=15180 fps=439 q=-0.0 size=N/A time=00:10:33.13 bitrate=N/A speed=18.3x    frame=15437 fps=440 q=-0.0 size=N/A time=00:10:43.85 bitrate=N/A speed=18.4x    frame=15690 fps=441 q=-0.0 size=N/A time=00:10:54.40 bitrate=N/A speed=18.4x    frame=15940 fps=441 q=-0.0 size=N/A time=00:11:04.83 bitrate=N/A speed=18.4x    frame=16202 fps=442 q=-0.0 size=N/A time=00:11:15.75 bitrate=N/A speed=18.5x    frame=16458 fps=443 q=-0.0 size=N/A time=00:11:26.43 bitrate=N/A speed=18.5x    frame=16712 fps=444 q=-0.0 size=N/A time=00:11:37.02 bitrate=N/A speed=18.5x    frame=16989 fps=445 q=-0.0 size=N/A time=00:11:48.58 bitrate=N/A speed=18.6x    frame=17244 fps=446 q=-0.0 size=N/A time=00:11:59.21 bitrate=N/A speed=18.6x    frame=17511 fps=447 q=-0.0 size=N/A time=00:12:10.35 bitrate=N/A speed=18.6x    frame=17767 fps=447 q=-0.0 size=N/A time=00:12:21.03 bitrate=N/A speed=18.7x    frame=18053 fps=449 q=-0.0 size=N/A time=00:12:32.96 bitrate=N/A speed=18.7x    frame=18328 fps=450 q=-0.0 size=N/A time=00:12:44.43 bitrate=N/A speed=18.8x    frame=18585 fps=450 q=-0.0 size=N/A time=00:12:55.14 bitrate=N/A speed=18.8x    frame=18825 fps=451 q=-0.0 size=N/A time=00:13:05.15 bitrate=N/A speed=18.8x    frame=19046 fps=450 q=-0.0 size=N/A time=00:13:14.37 bitrate=N/A speed=18.8x    frame=19260 fps=450 q=-0.0 size=N/A time=00:13:23.30 bitrate=N/A speed=18.8x    frame=19530 fps=451 q=-0.0 size=N/A time=00:13:34.56 bitrate=N/A speed=18.8x    frame=19795 fps=452 q=-0.0 size=N/A time=00:13:45.61 bitrate=N/A speed=18.8x    frame=20053 fps=452 q=-0.0 size=N/A time=00:13:56.37 bitrate=N/A speed=18.9x    frame=20296 fps=452 q=-0.0 size=N/A time=00:14:06.51 bitrate=N/A speed=18.9x    frame=20565 fps=453 q=-0.0 size=N/A time=00:14:17.73 bitrate=N/A speed=18.9x    frame=20819 fps=454 q=-0.0 size=N/A time=00:14:28.32 bitrate=N/A speed=18.9x    frame=21066 fps=454 q=-0.0 size=N/A time=00:14:38.62 bitrate=N/A speed=18.9x    frame=21295 fps=454 q=-0.0 size=N/A time=00:14:48.17 bitrate=N/A speed=18.9x    frame=21554 fps=454 q=-0.0 size=N/A time=00:14:58.98 bitrate=N/A speed=18.9x    frame=21810 fps=455 q=-0.0 size=N/A time=00:15:09.65 bitrate=N/A speed=  19x    frame=22068 fps=455 q=-0.0 size=N/A time=00:15:20.46 bitrate=N/A speed=  19x    frame=22301 fps=455 q=-0.0 size=N/A time=00:15:30.13 bitrate=N/A speed=  19x    frame=22546 fps=455 q=-0.0 size=N/A time=00:15:40.35 bitrate=N/A speed=  19x    frame=22834 fps=456 q=-0.0 size=N/A time=00:15:52.36 bitrate=N/A speed=  19x    frame=23067 fps=456 q=-0.0 size=N/A time=00:16:02.08 bitrate=N/A speed=  19x    frame=23295 fps=456 q=-0.0 size=N/A time=00:16:11.59 bitrate=N/A speed=  19x    frame=23532 fps=456 q=-0.0 size=N/A time=00:16:21.48 bitrate=N/A speed=  19x    frame=23741 fps=456 q=-0.0 size=N/A time=00:16:30.19 bitrate=N/A speed=  19x    frame=23961 fps=455 q=-0.0 size=N/A time=00:16:39.37 bitrate=N/A speed=  19x    frame=24174 fps=455 q=-0.0 size=N/A time=00:16:48.25 bitrate=N/A speed=  19x    frame=24414 fps=455 q=-0.0 size=N/A time=00:16:58.26 bitrate=N/A speed=  19x    frame=24676 fps=456 q=-0.0 size=N/A time=00:17:09.19 bitrate=N/A speed=  19x    frame=24938 fps=456 q=-0.0 size=N/A time=00:17:20.12 bitrate=N/A speed=  19x    frame=25181 fps=456 q=-0.0 size=N/A time=00:17:30.25 bitrate=N/A speed=  19x    frame=25456 fps=457 q=-0.0 size=N/A time=00:17:41.72 bitrate=N/A speed=19.1x    frame=25716 fps=457 q=-0.0 size=N/A time=00:17:52.57 bitrate=N/A speed=19.1x    frame=25979 fps=458 q=-0.0 size=N/A time=00:18:03.54 bitrate=N/A speed=19.1x    frame=26256 fps=459 q=-0.0 size=N/A time=00:18:15.09 bitrate=N/A speed=19.1x    frame=26509 fps=459 q=-0.0 size=N/A time=00:18:25.64 bitrate=N/A speed=19.1x    frame=26748 fps=459 q=-0.0 size=N/A time=00:18:35.61 bitrate=N/A speed=19.1x    frame=26977 fps=459 q=-0.0 size=N/A time=00:18:45.16 bitrate=N/A speed=19.1x    frame=27248 fps=459 q=-0.0 size=N/A time=00:18:56.46 bitrate=N/A speed=19.2x    frame=27471 fps=459 q=-0.0 size=N/A time=00:19:05.76 bitrate=N/A speed=19.2x    frame=27714 fps=459 q=-0.0 size=N/A time=00:19:15.90 bitrate=N/A speed=19.2x    frame=27895 fps=458 q=-0.0 size=N/A time=00:19:23.45 bitrate=N/A speed=19.1x    frame=28073 fps=457 q=-0.0 size=N/A time=00:19:30.87 bitrate=N/A speed=19.1x    frame=28272 fps=457 q=-0.0 size=N/A time=00:19:39.17 bitrate=N/A speed=19.1x    frame=28495 fps=457 q=-0.0 size=N/A time=00:19:48.47 bitrate=N/A speed=  19x    frame=28710 fps=456 q=-0.0 size=N/A time=00:19:57.44 bitrate=N/A speed=  19x    frame=28940 fps=456 q=-0.0 size=N/A time=00:20:07.03 bitrate=N/A speed=  19x    frame=29183 fps=456 q=-0.0 size=N/A time=00:20:17.17 bitrate=N/A speed=  19x    frame=29393 fps=456 q=-0.0 size=N/A time=00:20:25.93 bitrate=N/A speed=  19x    frame=29640 fps=456 q=-0.0 size=N/A time=00:20:36.23 bitrate=N/A speed=  19x    frame=29853 fps=456 q=-0.0 size=N/A time=00:20:45.11 bitrate=N/A speed=  19x    frame=30106 fps=456 q=-0.0 size=N/A time=00:20:55.67 bitrate=N/A speed=  19x    frame=30338 fps=456 q=-0.0 size=N/A time=00:21:05.34 bitrate=N/A speed=  19x    frame=30528 fps=455 q=-0.0 size=N/A time=00:21:13.27 bitrate=N/A speed=  19x    frame=30741 fps=455 q=-0.0 size=N/A time=00:21:22.15 bitrate=N/A speed=  19x    frame=30964 fps=455 q=-0.0 size=N/A time=00:21:31.45 bitrate=N/A speed=  19x    frame=31162 fps=454 q=-0.0 size=N/A time=00:21:39.71 bitrate=N/A speed=18.9x    frame=31375 fps=454 q=-0.0 size=N/A time=00:21:48.59 bitrate=N/A speed=18.9x    frame=31566 fps=453 q=-0.0 size=N/A time=00:21:56.56 bitrate=N/A speed=18.9x    frame=31792 fps=453 q=-0.0 size=N/A time=00:22:05.99 bitrate=N/A speed=18.9x    frame=32009 fps=453 q=-0.0 size=N/A time=00:22:15.04 bitrate=N/A speed=18.9x    frame=32192 fps=452 q=-0.0 size=N/A time=00:22:22.67 bitrate=N/A speed=18.9x    frame=32362 fps=451 q=-0.0 size=N/A time=00:22:29.76 bitrate=N/A speed=18.8x    frame=32575 fps=451 q=-0.0 size=N/A time=00:22:38.64 bitrate=N/A speed=18.8x    frame=32776 fps=451 q=-0.0 size=N/A time=00:22:47.03 bitrate=N/A speed=18.8x    frame=32975 fps=450 q=-0.0 size=N/A time=00:22:55.33 bitrate=N/A speed=18.8x    frame=33154 fps=450 q=-0.0 size=N/A time=00:23:02.79 bitrate=N/A speed=18.7x    frame=33339 fps=449 q=-0.0 size=N/A time=00:23:10.51 bitrate=N/A speed=18.7x    frame=33525 fps=448 q=-0.0 size=N/A time=00:23:18.27 bitrate=N/A speed=18.7x    frame=33727 fps=448 q=-0.0 size=N/A time=00:23:26.69 bitrate=N/A speed=18.7x    frame=33952 fps=448 q=-0.0 size=N/A time=00:23:36.08 bitrate=N/A speed=18.7x    frame=34166 fps=448 q=-0.0 size=N/A time=00:23:45.00 bitrate=N/A speed=18.7x    [Parsed_ssim_10 @ 000002361ac7d540] SSIM Y:0.993299 (21.738795) U:0.994376 (22.499647) V:0.993705 (22.010068) All:0.993546 (21.901974)
[out#0/null @ 0000023619cb54c0] video:14697KiB audio:267500KiB subtitle:0KiB other streams:0KiB global headers:0KiB muxing overhead: unknown
frame=34203 fps=448 q=-0.0 Lsize=N/A time=00:23:46.55 bitrate=N/A speed=18.7x    
